<?xml version="1.0" encoding="UTF-8"?>
<svg version="1.1" xmlns="http://www.w3.org/2000/svg" width="314" height="126">
<path d="M0 0 C5.61 0 11.22 0 17 0 C19.64 9.9 22.28 19.8 25 30 C26.68535987 26.62928026 27.6024655 24.03540404 28.47265625 20.4296875 C28.73240234 19.36878906 28.99214844 18.30789062 29.25976562 17.21484375 C29.52466797 16.11269531 29.78957031 15.01054688 30.0625 13.875 C30.59297811 11.68439256 31.12543068 9.49426201 31.66015625 7.3046875 C31.89355713 6.33515137 32.12695801 5.36561523 32.36743164 4.36669922 C33 2 33 2 34 0 C39.28 0 44.56 0 50 0 C52.2668063 6.63704548 54.28515585 13.31270111 56.1875 20.0625 C56.59645508 21.50399414 56.59645508 21.50399414 57.01367188 22.97460938 C57.67761799 25.31589303 58.33969291 27.65768796 59 30 C59.23710693 29.12674072 59.47421387 28.25348145 59.71850586 27.35375977 C60.59733114 24.12336084 61.47915047 20.89381098 62.36303711 17.66479492 C62.74543288 16.26538565 63.12662174 14.86564602 63.5065918 13.46557617 C64.05202574 11.4566441 64.60174709 9.4489286 65.15234375 7.44140625 C65.48226318 6.23170166 65.81218262 5.02199707 66.15209961 3.77563477 C67 1 67 1 68 0 C70.69654854 -0.07319621 73.36691458 -0.09242537 76.0625 -0.0625 C76.82111328 -0.05798828 77.57972656 -0.05347656 78.36132812 -0.04882812 C80.24091871 -0.0370068 82.12046899 -0.01907078 84 0 C82.67677538 7.28648549 80.86655767 14.33977493 78.77734375 21.44140625 C78.47180069 22.49029526 78.16625763 23.53918427 77.85145569 24.61985779 C77.21055084 26.81626129 76.56757388 29.01206113 75.92260742 31.20727539 C74.93162614 34.58250605 73.94877544 37.96003109 72.96679688 41.33789062 C72.34162392 43.4767023 71.71598966 45.61537921 71.08984375 47.75390625 C70.79504623 48.76731583 70.50024872 49.7807254 70.19651794 50.82484436 C69.92275833 51.75348801 69.64899872 52.68213165 69.36694336 53.63891602 C69.00626015 54.86941429 69.00626015 54.86941429 68.63829041 56.12477112 C68 58 68 58 67 59 C64.13530675 59.07330331 61.30106326 59.09217831 58.4375 59.0625 C54.2609375 59.0315625 54.2609375 59.0315625 50 59 C47.36 48.77 44.72 38.54 42 28 C39.36 38.23 36.72 48.46 34 59 C28.39 59 22.78 59 17 59 C14.49349128 52.61729529 12.51639064 46.16449894 10.64453125 39.5703125 C10.18478157 37.96299759 10.18478157 37.96299759 9.71574402 36.32321167 C9.07297352 34.07302759 8.43183091 31.82237793 7.79223633 29.57128906 C6.80935359 26.11393229 5.82007859 22.65844955 4.83007812 19.203125 C4.2053496 17.01312907 3.58098755 14.82302857 2.95703125 12.6328125 C2.6602095 11.59641632 2.36338776 10.56002014 2.05757141 9.49221802 C1.78696396 8.53717377 1.51635651 7.58212952 1.23754883 6.59814453 C0.87805901 5.33528122 0.87805901 5.33528122 0.51130676 4.04690552 C0 2 0 2 0 0 Z " fill="#0A0A0A" transform="translate(101,35)"/>
<path d="M0 0 C5.61 0 11.22 0 17 0 C17.84884766 3.10535156 17.84884766 3.10535156 18.71484375 6.2734375 C19.26373962 8.27585431 19.8133532 10.27807283 20.36303711 12.28027344 C20.74497389 13.6729711 21.126163 15.06587403 21.5065918 16.45898438 C22.05321439 18.46017897 22.60251251 20.46062245 23.15234375 22.4609375 C23.48226318 23.66540527 23.81218262 24.86987305 24.15209961 26.11083984 C24.88051868 28.90874155 24.88051868 28.90874155 26 31 C28.64 20.77 31.28 10.54 34 0 C39.61 0 45.22 0 51 0 C53.64 9.9 56.28 19.8 59 30 C60.84178908 23.49491558 60.84178908 23.49491558 62.67895508 16.98852539 C64.30564698 11.26929646 66.07815144 5.62703408 68 0 C73.28 0 78.56 0 84 0 C83.35431098 4.51982316 82.75525903 8.2865467 81.50952148 12.56811523 C81.20928574 13.60866562 80.90904999 14.649216 80.59971619 15.72129822 C80.27677078 16.82260574 79.95382538 17.92391327 79.62109375 19.05859375 C79.28956802 20.20288345 78.9580423 21.34717316 78.61647034 22.52613831 C77.56124036 26.16456181 76.49946715 29.80103788 75.4375 33.4375 C74.71896786 35.91068148 74.00086407 38.38398745 73.28320312 40.85742188 C71.52709454 46.90640138 69.76511695 52.95364333 68 59 C62.39 59 56.78 59 51 59 C48.76199021 52.56081394 46.95862469 46.12776257 45.375 39.5 C44.94853278 37.71797626 44.51901479 35.93667887 44.0859375 34.15625 C43.9007959 33.38087891 43.7156543 32.60550781 43.52490234 31.80664062 C43.15595738 29.9953765 43.15595738 29.9953765 42 29 C41.79318604 29.83772949 41.58637207 30.67545898 41.37329102 31.53857422 C40.60548551 34.64386345 39.83556829 37.74861915 39.06420898 40.85302734 C38.73067705 42.19721785 38.39798982 43.54161824 38.06616211 44.88623047 C37.58929559 46.8179319 37.10914711 48.7488222 36.62890625 50.6796875 C36.34088135 51.84226074 36.05285645 53.00483398 35.75610352 54.20263672 C35 57 35 57 34 59 C28.39 59 22.78 59 17 59 C12.45497746 44.53518711 8.09721497 30.03487175 4 15.4375 C3.79891632 14.72247314 3.59783264 14.00744629 3.39065552 13.27075195 C0 1.19763427 0 1.19763427 0 0 Z " fill="#0A0A0A" transform="translate(16,35)"/>
<path d="M0 0 C3.08489683 2.67357725 5.81034148 5.54264445 8 9 C8 9.99 8 10.98 8 12 C2.72 13.32 -2.56 14.64 -8 16 C-8.99 14.68 -9.98 13.36 -11 12 C-13.0488648 11.51942285 -13.0488648 11.51942285 -15.1875 11.75 C-17.0746875 11.87375 -17.0746875 11.87375 -19 12 C-19 13.65 -19 15.3 -19 17 C-17.906875 17.4125 -16.81375 17.825 -15.6875 18.25 C-14.96304688 18.52585937 -14.23859375 18.80171875 -13.4921875 19.0859375 C-11.73859025 19.7291064 -9.97120435 20.33528995 -8.1953125 20.9140625 C-1.25520402 23.22743199 2.58754606 25.50610119 6.8125 31.625 C8.51735051 36.47036461 8.68151578 40.91892126 8 46 C5.39449618 51.30750779 1.78598973 54.89514245 -3.73828125 57.0859375 C-11.86059908 59.36213196 -20.6488436 59.09770402 -28.1640625 55.14453125 C-31.9326991 52.79514716 -34.53044592 50.70433111 -37 47 C-37 45.68 -37 44.36 -37 43 C-31.72 41.68 -26.44 40.36 -21 39 C-20.01 40.32 -19.02 41.64 -18 43 C-14.37436186 43.33380814 -14.37436186 43.33380814 -11 43 C-10.67 41.35 -10.34 39.7 -10 38 C-14.16075503 36.15077554 -18.31602763 34.53769623 -22.625 33.0625 C-28.00848705 31.10822045 -31.4555339 29.18355552 -34.8125 24.4375 C-36.87110074 18.4783926 -36.86841419 12.60524256 -34.875 6.625 C-26.83119215 -4.636331 -11.84694234 -6.13502371 0 0 Z " fill="#ED7437" transform="translate(225,37)"/>
<path d="M0 0 C1.93166016 0.01740234 1.93166016 0.01740234 3.90234375 0.03515625 C5.19269531 0.04417969 6.48304688 0.05320312 7.8125 0.0625 C8.81152344 0.07410156 9.81054688 0.08570312 10.83984375 0.09765625 C9.2664265 8.05131808 6.81972627 15.63338774 4.26953125 23.3203125 C3.82360746 24.67496028 3.37806745 26.02973445 2.93289185 27.3846283 C1.76949878 30.92199152 0.6009563 34.45763203 -0.56872559 37.99291992 C-1.76512285 41.61207771 -2.95656107 45.23286705 -4.1484375 48.85351562 C-6.48087089 55.936489 -8.8192127 63.01748991 -11.16015625 70.09765625 C-16.11015625 70.09765625 -21.06015625 70.09765625 -26.16015625 70.09765625 C-23.36179933 59.19019203 -19.79194329 48.54253866 -16.28515625 37.84765625 C-15.66643292 35.95320133 -15.04794177 34.05867055 -14.4296875 32.1640625 C-12.95217022 27.63958979 -11.46847823 23.11718027 -9.9810791 18.59594727 C-9.19664609 16.20870475 -8.41599766 13.82025108 -7.63574219 11.43164062 C-7.18316364 10.05461487 -6.73037901 8.67765682 -6.27734375 7.30078125 C-5.8891748 6.11645508 -5.50100586 4.93212891 -5.10107422 3.71191406 C-3.80743769 0.11765877 -3.80743769 0.11765877 0 0 Z " fill="#EE7639" transform="translate(263.16015625,30.90234375)"/>
<path d="M0 0 C4.45850936 0.79616239 5.90783917 1.93313458 8.5 5.625 C9.17449963 9.82188661 8.96840345 11.82697931 6.8125 15.5 C4.20555342 17.89557253 3.01649667 18.53923179 -0.5 18.625 C-3.42641938 17.85855683 -5.10053942 16.99691157 -7.3125 14.9375 C-9.03562029 11.58194997 -9.02208089 9.34482635 -8.5 5.625 C-5.90783917 1.93313458 -4.45850936 0.79616239 0 0 Z " fill="#EE773A" transform="translate(287.5,77.375)"/>
</svg>
